<svg xmlns="http://www.w3.org/2000/svg" width="1200" height="600" viewBox="0 0 1200 600">
  <defs>
    <linearGradient id="bg" x1="0" x2="1" y1="0" y2="1">
      <stop offset="0%" stop-color="#312e81"/>
      <stop offset="100%" stop-color="#1e3a8a"/>
    </linearGradient>
  </defs>
  <rect width="1200" height="600" fill="url(#bg)"/>
  <text x="70" y="120" fill="#eef2ff" font-size="52" font-family="Segoe UI, Arial, sans-serif">LLM Tracing</text>
  <text x="70" y="170" fill="#c7d2fe" font-size="24" font-family="Segoe UI, Arial, sans-serif">Placeholder image - replace with screenshot later</text>
  <rect x="70" y="230" width="1060" height="290" rx="20" fill="#1e1b4b" stroke="#818cf8" stroke-width="2"/>
  <polyline points="120,450 230,410 320,430 420,350 520,360 650,300 770,330 900,260 1040,290"
    fill="none" stroke="#a5b4fc" stroke-width="6"/>
  <circle cx="230" cy="410" r="10" fill="#e0e7ff"/>
  <circle cx="420" cy="350" r="10" fill="#e0e7ff"/>
  <circle cx="650" cy="300" r="10" fill="#e0e7ff"/>
  <circle cx="900" cy="260" r="10" fill="#e0e7ff"/>
  <rect x="120" y="270" width="200" height="95" rx="12" fill="#312e81"/>
  <rect x="360" y="250" width="260" height="95" rx="12" fill="#3730a3"/>
  <rect x="660" y="250" width="180" height="95" rx="12" fill="#4338ca"/>
  <rect x="880" y="230" width="180" height="95" rx="12" fill="#4f46e5"/>
</svg>
